<?xml version="1.0" encoding="utf-8"?>
<!-- Generator: Adobe Illustrator 19.0.0, SVG Export Plug-In . SVG Version: 6.00 Build 0)  -->
<svg version="1.1" id="Layer_1" xmlns="http://www.w3.org/2000/svg" xmlns:xlink="http://www.w3.org/1999/xlink" x="0px" y="0px"
	 viewBox="0 0 64.9 20.3" style="enable-background:new 0 0 64.9 20.3;" xml:space="preserve">
<path d="M945.1-29.1c-11.9,0-21.9,4.1-29.8,12.2c-7.9,8.1-11.9,18.3-11.9,30.6c0,12,4,22,11.9,29.9c7.9,8,18.2,11.9,30.8,11.9
	c8.1,0,15.2-1.4,21.1-4.3c5.9-2.9,11-7.3,15.2-13.4l-17-8c-5.4,5.3-11.9,7.9-19.4,7.9c-6.3,0-11.5-1.7-15.6-5.1
	c-4.1-3.4-6.6-7.9-7.5-13.6h64.9l0.1-3.8c0-13.3-4-24-11.9-32.1C968.1-25.1,957.8-29.1,945.1-29.1z M923.9,3.1
	c2.3-5,4.7-8.5,7.4-10.4c4.2-3.2,9.2-4.7,14.8-4.7c5.2,0,9.7,1.4,13.7,4.2c3.9,2.8,6.6,6.5,7.9,10.9H923.9z"/>
<path d="M1019.4-26c-3.1,2.1-5.6,5.1-7.5,9.1v-12.2h-17.3v84.6h20V20.9l-0.1-4c0-11.2,1.1-18.8,3.2-22.6c2.1-3.8,4.8-5.8,7.9-5.8
	c1.5,0,3.5,0.6,5.8,1.8l5.6-17.9c-2.4-1.2-4.9-1.5-7.5-1.5C1025.9-29.1,1022.5-28,1019.4-26z"/>
<path d="M719.4-8.2c-3.4-5.8-7.9-10.5-13.7-14.1c-0.6-0.4-1.2-0.8-1.8-1.1c-6.7-3.8-13.8-5.7-21.4-5.7c-10.5,0-19.8,3.6-27.9,10.9
	c-0.3,0.3-0.5,0.5-0.8,0.8v-77.7h-20.2V55.5h20.2V43.9c8,7.7,17.6,11.6,28.7,11.6c7.8,0,15-1.9,21.5-5.6c0.6-0.3,1.1-0.7,1.6-1
	c5.6-3.5,10.1-8.2,13.5-14.1c0.1-0.1,0.2-0.3,0.2-0.4c3.8-6.6,5.7-13.7,5.7-21.3c0-7.5-1.9-14.6-5.6-21.1
	C719.5-8.1,719.5-8.1,719.4-8.2z M698.5,30.1c-1.9,2-4,3.5-6.3,4.6c-2.8,1.3-6,2-9.5,2c-6.3,0-11.5-2.2-15.7-6.5
	c-4.1-4.3-6.2-10-6.2-17c0-6.8,2.1-12.4,6.3-16.7c4.2-4.4,9.4-6.5,15.7-6.5c3.4,0,6.6,0.6,9.3,1.9c2.4,1.1,4.6,2.6,6.5,4.6
	c4.1,4.3,6.2,9.9,6.2,16.8C704.8,20.1,702.7,25.7,698.5,30.1z"/>
<path d="M774.6,55.5c8.1,0,15.2-1.4,21.1-4.3c3.2-1.5,6.1-3.5,8.8-6l-12.6-13.5c-5,4-10.8,6.1-17.4,6.1c-6.3,0-11.5-1.7-15.6-5.1
	c-4.1-3.4-6.6-7.9-7.5-13.6h64.9l0.1-3.8c0-13.3-4-24-11.9-32.1c-7.9-8.1-18.2-12.2-30.9-12.2c-11.9,0-21.9,4.1-29.8,12.2
	c-7.9,8.1-11.9,18.3-11.9,30.6c0,12,4,22,11.9,29.9C751.7,51.5,762,55.5,774.6,55.5z M759.7-7.3c4.2-3.2,9.2-4.7,14.8-4.7
	c5.2,0,9.7,1.4,13.7,4.2c3.9,2.8,6.6,6.5,7.9,10.9h-43.8C754.5-1.9,757-5.3,759.7-7.3z"/>
<path d="M1243-56.5c-2.8,0-5.2,1-7.2,3c-2,2-3,4.4-3,7.2c0,2.9,1,5.4,3,7.4c2,2,4.4,3.1,7.3,3.1c2.8,0,5.1-1,7.1-3c2-2,3-4.4,3-7.3
	c0-2.9-1-5.3-3-7.4C1248.2-55.5,1245.8-56.5,1243-56.5z"/>
<rect x="1232.8" y="-29" width="20.2" height="84.6"/>
<path d="M1280,21.5c0-8.4,0.3-13.8,0.9-16.3c1.1-4.8,3.2-8.6,6.1-11.3c2.9-2.7,6.4-4.1,10.5-4.1c3.1,0,5.8,0.8,7.9,2.5
	c2.1,1.7,3.6,4.1,4.5,7.2c0.9,3.2,1.3,9.5,1.3,19.1v37h20V0.6c0-9.3-2.3-16.3-7-21c-5.6-5.6-12.3-8.4-20.3-8.4
	c-3.9,0-7.7,0.8-11.4,2.3c-3.7,1.5-7.9,4.2-12.4,8.1V-29h-20.2v84.6h20.2V21.5z"/>
<polygon points="1337.8,55.5 1358,55.5 1358,-35.9 1371.4,-35.9 1371.4,-56.7 1358,-56.7 1358,-95.1 1337.8,-95.1 1337.8,-56.7 
	1324.5,-56.7 1324.5,-35.9 1337.8,-35.9 "/>
<path d="M1214.6-29.1c-2.8,1.3-6.7,2.1-10.1,2.5c-2.6,0.3-5.7,0.1-8.2-0.4c-0.8-0.3-1.7-0.5-2.5-0.7c0,0,0,0,0,0v0
	c-1.2-0.3-2.5-0.6-3.7-0.7c-2.2-0.3-4.4-0.5-6.7-0.5c-8.1,0-15.5,2.2-22.2,6.6c-0.5-0.3-1-0.6-1.5-0.9c-6.7-3.8-13.8-5.7-21.4-5.7
	c-8.3,0-15.8,2.3-22.5,6.8c-0.6-0.4-1.2-0.8-1.8-1.1c-6.7-3.8-13.8-5.7-21.4-5.7c-10.5,0-19.8,3.6-27.9,10.9
	c-0.3,0.3-0.5,0.5-0.8,0.8v-11.8h-20.2v150.6h20.2V43.9c8,7.7,17.6,11.6,28.7,11.6c7.8,0,15-1.9,21.5-5.6c0.6-0.3,1.1-0.7,1.7-1
	c5.6-3.5,10.1-8.2,13.5-14.1c0.1-0.1,0.2-0.3,0.2-0.4c3.8-6.6,5.7-13.7,5.7-21.3c0-7.5-1.9-14.6-5.6-21.1c0-0.1-0.1-0.2-0.1-0.2
	c2.8-1.3,5.8-1.9,9.2-1.9c3.2,0,6.2,0.5,8.8,1.6c-3.9,6.4-5.8,13.6-5.8,21.7c0,8.1,2,15.3,5.8,21.7c1.7,2.9,3.9,5.7,6.4,8.2
	c2.3,2.3,4.7,4.3,7.3,5.9c6.5,4.2,13.9,6.4,22.2,6.4c2.3,0,4.5-0.2,6.6-0.5c5.3-0.8,10.3-2.5,14.9-5.1c1.8-1,3.5-2.2,5.1-3.5
	c4.1-3.3,7.6-7.3,10.3-12c3.8-6.6,5.7-13.7,5.7-21.3c0-7.5-1.9-14.6-5.6-21.1c-0.5-0.9-1-1.3-0.2-1.5c1.2-0.4,3.6-1.6,5.6-3
	C1221.5-18.9,1220.7-20.2,1214.6-29.1z M1108.7,30.2c-1.9,2-4,3.5-6.3,4.6c-2.8,1.3-6,2-9.5,2c-6.3,0-11.5-2.2-15.7-6.5
	c-4.1-4.3-6.2-10-6.2-17c0-6.8,2.1-12.4,6.3-16.7c4.2-4.4,9.4-6.5,15.7-6.5c3.4,0,6.5,0.6,9.3,1.9c2.4,1.1,4.6,2.6,6.5,4.6
	c4.1,4.3,6.2,9.9,6.2,16.8C1115,20.1,1112.9,25.8,1108.7,30.2z M1199.5,30.2c-2.7,2.8-5.8,4.7-9.3,5.7c-2,0.6-4.1,0.9-6.4,0.9
	c-3.2,0-6.1-0.6-8.7-1.6c-2.6-1.1-4.9-2.7-7-4.9c-4.1-4.3-6.2-10-6.2-17c0-6.8,2.1-12.4,6.3-16.7c2.1-2.2,4.4-3.8,7-4.9
	c2.6-1.1,5.5-1.6,8.6-1.6c2.3,0,4.4,0.3,6.4,0.8c3.6,1,6.8,2.9,9.5,5.6c4.1,4.3,6.2,9.9,6.2,16.8
	C1205.8,20.1,1203.7,25.8,1199.5,30.2z"/>
<polygon points="876.7,55.5 896.9,55.5 896.9,-35.9 910.3,-35.9 910.3,-56.7 896.9,-56.7 896.9,-95.1 876.7,-95.1 876.7,-56.7 
	863.3,-56.7 863.3,-35.9 876.7,-35.9 "/>
<polygon points="823,55.5 843.2,55.5 843.2,-35.9 856.6,-35.9 856.6,-56.7 843.2,-56.7 843.2,-95.1 823,-95.1 823,-56.7 
	809.7,-56.7 809.7,-35.9 823,-35.9 "/>
<g>
	<path d="M27.4,7c-1,0-1.9,0.4-2.6,1.1c-0.7,0.7-1,1.6-1,2.7c0,1.1,0.3,1.9,1,2.6c0.7,0.7,1.6,1.1,2.7,1.1c0.7,0,1.3-0.1,1.9-0.4
		c0.5-0.3,1-0.6,1.3-1.2l-1.5-0.7c-0.5,0.5-1,0.7-1.7,0.7c-0.6,0-1-0.1-1.4-0.4c-0.4-0.3-0.6-0.7-0.7-1.2h5.7l0-0.3
		c0-1.2-0.3-2.1-1-2.8C29.4,7.4,28.5,7,27.4,7z M25.5,9.9c0.2-0.4,0.4-0.7,0.7-0.9c0.4-0.3,0.8-0.4,1.3-0.4c0.5,0,0.9,0.1,1.2,0.4
		c0.3,0.2,0.6,0.6,0.7,1H25.5z"/>
	<path d="M33.9,7.3c-0.3,0.2-0.5,0.4-0.7,0.8V7h-1.5v7.4h1.8v-3l0-0.3c0-1,0.1-1.7,0.3-2c0.2-0.3,0.4-0.5,0.7-0.5
		c0.1,0,0.3,0.1,0.5,0.2l0.5-1.6C35.3,7,35,7,34.8,7C34.5,7,34.2,7.1,33.9,7.3z"/>
	<path d="M7.5,8.9C7.2,8.3,6.8,7.9,6.3,7.6c-0.1,0-0.1-0.1-0.2-0.1C5.6,7.2,5,7,4.3,7C3.4,7,2.6,7.3,1.8,8c0,0,0,0-0.1,0.1V1.2H0
		v13.2h1.8v-1c0.7,0.7,1.5,1,2.5,1c0.7,0,1.3-0.2,1.9-0.5c0,0,0.1-0.1,0.1-0.1c0.5-0.3,0.9-0.7,1.2-1.2c0,0,0,0,0,0
		C7.9,12,8,11.4,8,10.7C8,10.1,7.9,9.4,7.5,8.9C7.5,8.9,7.5,8.9,7.5,8.9z M5.7,12.2c-0.2,0.2-0.4,0.3-0.6,0.4
		c-0.2,0.1-0.5,0.2-0.8,0.2c-0.6,0-1-0.2-1.4-0.6c-0.4-0.4-0.5-0.9-0.5-1.5c0-0.6,0.2-1.1,0.6-1.5c0.4-0.4,0.8-0.6,1.4-0.6
		c0.3,0,0.6,0.1,0.8,0.2c0.2,0.1,0.4,0.2,0.6,0.4c0.4,0.4,0.5,0.9,0.5,1.5C6.3,11.3,6.1,11.8,5.7,12.2z"/>
	<path d="M12.4,14.5c0.7,0,1.3-0.1,1.9-0.4c0.3-0.1,0.5-0.3,0.8-0.5l-1.1-1.2c-0.4,0.4-0.9,0.5-1.5,0.5c-0.6,0-1-0.1-1.4-0.4
		c-0.4-0.3-0.6-0.7-0.7-1.2h5.7l0-0.3c0-1.2-0.3-2.1-1-2.8C14.3,7.4,13.4,7,12.3,7c-1,0-1.9,0.4-2.6,1.1c-0.7,0.7-1,1.6-1,2.7
		c0,1.1,0.3,1.9,1,2.6C10.4,14.1,11.3,14.5,12.4,14.5z M11.1,8.9c0.4-0.3,0.8-0.4,1.3-0.4c0.5,0,0.9,0.1,1.2,0.4
		c0.3,0.2,0.6,0.6,0.7,1h-3.9C10.6,9.4,10.8,9.1,11.1,8.9z"/>
	<path d="M53.6,4.6c-0.2,0-0.5,0.1-0.6,0.3c-0.2,0.2-0.3,0.4-0.3,0.6c0,0.3,0.1,0.5,0.3,0.7c0.2,0.2,0.4,0.3,0.6,0.3
		c0.2,0,0.5-0.1,0.6-0.3c0.2-0.2,0.3-0.4,0.3-0.6c0-0.3-0.1-0.5-0.3-0.6C54,4.7,53.8,4.6,53.6,4.6z"/>
	<rect x="52.7" y="7" width="1.8" height="7.4"/>
	<path d="M56.8,11.5c0-0.7,0-1.2,0.1-1.4c0.1-0.4,0.3-0.8,0.5-1c0.3-0.2,0.6-0.4,0.9-0.4c0.3,0,0.5,0.1,0.7,0.2
		c0.2,0.1,0.3,0.4,0.4,0.6c0.1,0.3,0.1,0.8,0.1,1.7v3.3h1.8V9.6c0-0.8-0.2-1.4-0.6-1.8C60.2,7.3,59.6,7,58.9,7c-0.3,0-0.7,0.1-1,0.2
		c-0.3,0.1-0.7,0.4-1.1,0.7V7h-1.8v7.4h1.8V11.5z"/>
	<polygon points="61.9,14.5 63.7,14.5 63.7,6.4 64.9,6.4 64.9,4.6 63.7,4.6 63.7,1.2 61.9,1.2 61.9,4.6 60.8,4.6 60.8,6.4 61.9,6.4 
			"/>
	<path d="M51.1,7c-0.2,0.1-0.6,0.2-0.9,0.2c-0.2,0-0.5,0-0.7,0c-0.1,0-0.1,0-0.2-0.1c0,0,0,0,0,0v0c-0.1,0-0.2,0-0.3-0.1
		c-0.2,0-0.4,0-0.6,0c-0.7,0-1.4,0.2-2,0.6c0,0-0.1-0.1-0.1-0.1C45.7,7.2,45.1,7,44.4,7c-0.7,0-1.4,0.2-2,0.6
		c-0.1,0-0.1-0.1-0.2-0.1C41.7,7.2,41,7,40.4,7c-0.9,0-1.7,0.3-2.5,1c0,0,0,0-0.1,0.1V7h-1.8v13.2h1.8v-6.8c0.7,0.7,1.5,1,2.5,1
		c0.7,0,1.3-0.2,1.9-0.5c0,0,0.1-0.1,0.1-0.1c0.5-0.3,0.9-0.7,1.2-1.2c0,0,0,0,0,0c0.3-0.6,0.5-1.2,0.5-1.9c0-0.7-0.2-1.3-0.5-1.9
		c0,0,0,0,0,0c0.2-0.1,0.5-0.2,0.8-0.2c0.3,0,0.5,0,0.8,0.1c-0.3,0.6-0.5,1.2-0.5,1.9c0,0.7,0.2,1.3,0.5,1.9
		c0.2,0.3,0.3,0.5,0.6,0.7c0.2,0.2,0.4,0.4,0.6,0.5c0.6,0.4,1.2,0.6,2,0.6c0.2,0,0.4,0,0.6,0c0.5-0.1,0.9-0.2,1.3-0.4
		c0.2-0.1,0.3-0.2,0.5-0.3c0.4-0.3,0.7-0.6,0.9-1.1c0.3-0.6,0.5-1.2,0.5-1.9c0-0.7-0.2-1.3-0.5-1.9c0-0.1-0.1-0.1,0-0.1
		c0.1,0,0.3-0.1,0.5-0.3C51.7,7.9,51.6,7.8,51.1,7z M41.8,12.2c-0.2,0.2-0.4,0.3-0.6,0.4c-0.2,0.1-0.5,0.2-0.8,0.2
		c-0.6,0-1-0.2-1.4-0.6c-0.4-0.4-0.5-0.9-0.5-1.5c0-0.6,0.2-1.1,0.6-1.5c0.4-0.4,0.8-0.6,1.4-0.6c0.3,0,0.6,0.1,0.8,0.2
		c0.2,0.1,0.4,0.2,0.6,0.4c0.4,0.4,0.5,0.9,0.5,1.5C42.3,11.3,42.1,11.8,41.8,12.2z M49.8,12.2c-0.2,0.2-0.5,0.4-0.8,0.5
		c-0.2,0.1-0.4,0.1-0.6,0.1c-0.3,0-0.5,0-0.8-0.1c-0.2-0.1-0.4-0.2-0.6-0.4c-0.4-0.4-0.5-0.9-0.5-1.5c0-0.6,0.2-1.1,0.6-1.5
		c0.2-0.2,0.4-0.3,0.6-0.4c0.2-0.1,0.5-0.1,0.8-0.1c0.2,0,0.4,0,0.6,0.1c0.3,0.1,0.6,0.3,0.8,0.5c0.4,0.4,0.5,0.9,0.5,1.5
		C50.3,11.3,50.1,11.8,49.8,12.2z"/>
	<polygon points="21.4,14.5 23.1,14.5 23.1,6.4 24.3,6.4 24.3,4.6 23.1,4.6 23.1,1.2 21.4,1.2 21.4,4.6 20.2,4.6 20.2,6.4 21.4,6.4 
			"/>
	<polygon points="16.7,14.5 18.4,14.5 18.4,6.4 19.6,6.4 19.6,4.6 18.4,4.6 18.4,1.2 16.7,1.2 16.7,4.6 15.5,4.6 15.5,6.4 16.7,6.4 
			"/>
</g>
</svg>
